<svg xmlns="http://www.w3.org/2000/svg" width="392" height="768" viewBox="0 0 392 768" role="img" aria-label="Abstract sunrise mountain scene">
  <defs>
    <linearGradient id="sky" x1="0" x2="0" y1="0" y2="1">
      <stop offset="0" stop-color="#152a3e"/>
      <stop offset=".52" stop-color="#d6a957"/>
      <stop offset="1" stop-color="#07111f"/>
    </linearGradient>
    <linearGradient id="ridge" x1="0" x2="1" y1="0" y2="1">
      <stop offset="0" stop-color="#f8e5b2"/>
      <stop offset=".42" stop-color="#d67f3d"/>
      <stop offset="1" stop-color="#102335"/>
    </linearGradient>
  </defs>
  <rect width="392" height="768" fill="url(#sky)"/>
  <circle cx="286" cy="194" r="72" fill="#ffe8a3" opacity=".88"/>
  <path d="M0 450 78 336l60 76 83-136 87 146 48-62 36 60v348H0Z" fill="url(#ridge)"/>
  <path d="M0 540c54-28 99-40 134-36 42 5 77 32 124 31 42-1 79-24 134-67v300H0Z" fill="#08111f" opacity=".78"/>
  <path d="M40 194c80-46 163-47 250-4" fill="none" stroke="#fff5d6" stroke-width="3" opacity=".28"/>
</svg>
